<svg width="56" height="61" viewBox="0 0 56 61" fill="none" xmlns="http://www.w3.org/2000/svg">
<path d="M19.6004 16.2886L26.7085 12.8007L5.97265 2.62505C3.65537 1.48786 0.958984 3.1923 0.958984 5.79413V42.5597C0.958984 44.1848 2.0593 45.5991 3.62275 45.9834L17.6363 49.4277V19.458C17.6363 18.109 18.399 16.8783 19.6004 16.2886Z" fill="#F9D14A"/>
<path d="M34.053 53.4619L17.6387 49.4274V56.7865C17.6387 59.3885 20.3352 61.0928 22.6525 59.9558L36.3759 53.2213C35.6835 53.5553 34.8738 53.6637 34.053 53.4619Z" fill="#FABD0C"/>
<path d="M50.0306 1.35714L26.7109 12.8007L36.4028 17.5567C37.6042 18.1464 38.3668 19.3769 38.3668 20.726V50.0384C38.3668 51.4613 37.5444 52.6497 36.3932 53.2129L53.0801 45.0242C54.2816 44.4346 55.0443 43.2041 55.0443 41.8551V4.52634C55.0443 1.92439 52.3479 0.219963 50.0306 1.35714Z" fill="#FABD0C"/>
<path d="M38.3667 50.0354V20.723C38.3667 19.3739 37.6041 18.1434 36.4027 17.5537L26.7108 12.7977L19.6028 16.2856C18.4014 16.8753 17.6387 18.106 17.6387 19.455V49.4245L34.053 53.4589C34.8738 53.6608 35.6835 53.5524 36.3758 53.2183L36.3932 53.2099C37.5443 52.6467 38.3667 51.4582 38.3667 50.0354Z" fill="#F09511"/>
</svg>